<?xml version="1.0" encoding="utf-8"?>
<!-- Generator: Adobe Illustrator 16.0.0, SVG Export Plug-In . SVG Version: 6.00 Build 0)  -->
<!DOCTYPE svg PUBLIC "-//W3C//DTD SVG 1.1//EN" "http://www.w3.org/Graphics/SVG/1.1/DTD/svg11.dtd">
<svg version="1.1" id="Layer_1" xmlns="http://www.w3.org/2000/svg" xmlns:xlink="http://www.w3.org/1999/xlink" x="0px" y="0px"
	 width="400px" height="400px" viewBox="0 0 400 400" enable-background="new 0 0 400 400" xml:space="preserve">
<rect fill="#F04B23" width="400" height="400"/>
<g>
	<defs>
		<rect id="SVGID_1_" width="400" height="400"/>
	</defs>
	<clipPath id="SVGID_2_">
		<use xlink:href="#SVGID_1_"  overflow="visible"/>
	</clipPath>
	<g clip-path="url(#SVGID_2_)">
		<g>
			<defs>
				<rect id="SVGID_3_" x="-71.627" y="-55.598" width="1232.602" height="738.667"/>
			</defs>
			<clipPath id="SVGID_4_">
				<use xlink:href="#SVGID_3_"  overflow="visible"/>
			</clipPath>
			<g clip-path="url(#SVGID_4_)">
				<path fill="#4CB748" d="M291.796,607.41c0,0-0.247,39.779,0.411,41.454c3.021,7.665,10.972,30.421,5.504,44.843
					c-6.657,17.557-1.943,39.679,0.673,75.627c2.617,35.948,3.495,118.976,2.492,133.647c-1.003,14.669,7.149,79.089,3.882,126.896
					c-3.267,47.811-2.807,160.834-1.668,176.193c1.127,15.362,22.368,32.099-21.22,38.944c-43.589,6.844-41.59,1.521-36.125-38.495
					c5.466-40.02,1.173-73.064,0.901-85.091c-0.27-12.024-9.928-86.376-8.592-105.933c1.339-19.56,3.16-70.194,1.672-88.313
					c-1.492-18.114-24.273-108.096-33.222-128.905c-8.948-20.804-15.007-59.973-25.441-59.049
					c-10.435,0.92-28.81,94.1-31.038,126.695c-2.227,32.597,11.924,105.069,12.349,154.769
					c0.425,49.703-3.199,158.623-3.261,175.538c-0.063,16.922,1.305,20.834-38.074,21.964
					c-39.376,1.129-22.309-24.994-21.418-38.033c0.892-13.038-12.717-85.476-9.886-110.938c2.831-25.461-2.643-89.149-1.192-110.338
					c1.446-21.187-19.874-116.53-18.575-135.548c1.299-19.015-4.893-209.382-4.576-216.455
					C65.71,599.804,291.796,607.41,291.796,607.41z"/>
				<path fill="#DEF1F3" d="M229.79,257.852c0,0,42.453,1.809,77.344,18.384c34.894,16.577,47.711,20.726,49.439,27.393
					c1.724,6.673,14.537,44.302,22.538,71.046c7.995,26.75,17.569,76.891,17.05,84.499c-0.521,7.604-1.812,42.447-3.415,49.981
					c-1.609,7.534-66.627-15.471-66.627-15.471l-6.877,2.052c0,0,4.696-28.758,8.329-33.972c3.634-5.211-7.048-29.957-6.381-39.74
					c0.671-9.776-15.752,17.483-16.125,22.918c-0.371,5.433-7.792,55.504-5.682,77.851c2.112,22.343,6.88,59.063,6.213,68.839
					c-0.669,9.784-83.752,75.426-116.978,71.7C155.395,659.61,74.94,596.244,72.376,585.88c-1.498-6.036,17.03-39.001,26.655-76.082
					c6.893-26.56,5.608-60.593,5.814-63.618c0.495-7.242-4.581-16.321-6.867-7.741c-2.289,8.574-5.513,29.093-9.85,39.35
					s-2.18,21.317-2.726,29.286c-0.546,7.976-11.243,4.694-31.212,4.056c-19.969-0.632-39.263,15.516-38.757,13.366
					c0.511-2.147,2.182-21.323,3.94-31.025c1.755-9.706,9.229-29.688,9.068-63.436c-0.161-33.744,4.635-99.762,20.539-108.865
					C64.881,312.072,137.382,262.834,229.79,257.852z"/>
				<path opacity="0.1" fill="#8D633A" enable-background="new    " d="M195.742,337.996c0,0,21.348-24.178,36.105-33.596
					c14.757-9.42,29.416-8.619,30.458-4.481c0,0,8.115,12.108,7.976,23.947c-0.202,17.014-7.035-14.443-20.537-11.617
					C236.243,315.072,207.053,337.996,195.742,337.996z"/>
				<path fill="none" d="M245.244,38.757c0,0,2.932-1.046,8.689-0.523c5.755,0.523,12.345,3.669,12.87,3.771
					c0.525,0.101,0.839,1.732,0.839,3.429c0,1.695,1.142,5.604-3.251,4.314c-4.39-1.291-4.39-1.291-4.39-1.291
					s-6.591-0.593-9.208,1.082c-2.618,1.675-5.232,2.711-5.026,0.466C245.977,47.76,243.15,40.432,245.244,38.757z"/>
				<g>
					<g>
						<polygon fill="#F9A667" points="156.634,240.423 160.012,320.908 181.602,339.075 202.188,329.896 209.951,316.905 
							233.352,306.391 232.792,240.238 232.792,239.947 						"/>
					</g>
					<g>
						<path fill="#FBB573" d="M124.547,112.296c-4.531,20.936-0.903,67.223,4.827,91.192c5.466,22.855,40.173,55.414,66.053,55.253
							c25.873-0.158,60.199-33.144,65.379-56.067c4.286-18.962,7.26-69.721,5.908-92.987c0,0-57.091-13.254-98.916-12.853
							C144.125,97.061,125.386,108.42,124.547,112.296z"/>
					</g>
					<path opacity="0.6" fill="#010101" enable-background="new    " d="M184.129,151.914l4.599-8.504c0,0-8.334-3.406-18.185-1.434
						c-9.851,1.965-14.174,7.008-14.174,7.008l2.481,5.832c0,0,6.858-4.934,13.199-4.975
						C178.388,149.8,184.129,151.914,184.129,151.914z"/>
					<path opacity="0.6" fill="#010101" enable-background="new    " d="M204.775,147.855l4.524,7.772c0,0,5.179-3.19,12.422-2.521
						c7.246,0.673,12.697,3.682,12.697,3.682l2.146-5.739c0,0-5.751-3.811-14.442-5.461
						C213.433,143.941,204.775,147.855,204.775,147.855z"/>
					<g>
						<path fill="#8D633A" d="M253.666,115.524c0,0,13.343,36.435,11.355,55.892c0,0,14.283-44.005,9.344-68.375
							C269.419,78.673,253.666,115.524,253.666,115.524z"/>
					</g>
					<path opacity="0.2" fill="#8D633A" enable-background="new    " d="M260.147,103.115c-0.956,1.514-1.854,3.083-2.663,4.579
						c-5.821-1.201-14.042-2.809-23.557-4.416l-67.533,0.418c0,0,14.605,5.375,24.929,15.333
						c9.679,9.337,50.143,43.146,79.635,30.059c3.175-14.334,5.964-32.619,3.487-45.578l-8.765-0.429L260.147,103.115z"/>
					<g>
						<g>
							<path fill="#FBB573" d="M232.472,76.328c0.96,0,3.111-1.456,1.169-1.456C232.683,74.873,230.531,76.328,232.472,76.328
								L232.472,76.328z"/>
						</g>
					</g>
					<g>
						<path fill="#8D633A" d="M124.564,169.985c0,0-18.061-38.46-7.341-71.293c10.713-32.831,38.207-19.413,38.207-19.413
							s-0.205-33.023,42.707-22.57c44.093,10.742,48.123,16.372,57.513,1.679c9.389-14.688-1.998-26.372-1.998-26.372
							s19.191,11.16,20.906,23.035c1.716,11.87-3.526,19.6-3.526,19.6s6.214-2.494,7.558-6.429c1.354-3.936,1.964-10.89,1.964-10.89
							s17.949,25.731,12.969,43.026c-4.979,17.296-14.882,37.3-52.524,34.058c-37.644-3.239-58.121-31.877-77.063-30.151
							C144.995,105.994,129.427,142.056,124.564,169.985z"/>
					</g>
					<path opacity="0.3" fill="#FFFFFF" enable-background="new    " d="M278.591,68.219c-1.344,3.935-7.558,6.429-7.558,6.429
						s0.129-0.198,0.325-0.537c-3.845,2.352-9.535,3.987-17.924,3.987c-30.03,0.006-70.507-21.31-84.694-12.539
						c-14.186,8.769-10.605,22.079-10.605,22.079s0.25-17.72,16.527-19.254c16.281-1.533,76.15,19.326,90.879,12.682
						c11.936-5.383,20.07-14.223,16.493-21.479c-0.904-1.435-1.479-2.259-1.479-2.259S279.943,64.282,278.591,68.219z"/>
					<g opacity="0.2">
						<path fill="#8D633A" d="M125.053,149.772c-2.407,8.436-6.413,3.353-6.565,3.15c2.899,10.282,6.076,17.064,6.076,17.064
							c4.865-27.93,20.431-63.992,39.371-65.725C147.118,81.112,127.502,141.163,125.053,149.772z"/>
						<path fill="#8D633A" d="M262.176,124.758c-19.996,3.912-67.92-13.896-80.679-22.052c-12.756-8.154-20.625-7.03-17.562,1.554
							c18.942-1.727,39.419,26.912,77.063,30.151c37.643,3.242,47.546-16.762,52.524-34.058c0.706-2.468,0.939-5.109,0.835-7.819
							C290.744,115.28,282.011,120.88,262.176,124.758z"/>
					</g>
					<g opacity="0.1">
						<path fill="#FFFFFF" d="M161.636,98.81c-0.021,0.084-0.03,0.143-0.03,0.143S161.621,98.892,161.636,98.81z"/>
						<path fill="#FFFFFF" d="M264.44,99.749c-26.928,2.076-47.712-18.395-77.062-17.5c-29.348,0.898-27.008,11.702-27.008,11.702
							s1.443,5.461,1.272,6.291c0.337-1.544,23.064-8.74,52.971,4.511c31.586,13.996,66.964,12.96,77.363-1.834
							c3.742-5.333,1.171-13.93,0.045-21.104c-0.07-0.221-2.458-6.491-2.531-6.712C289.229,82.501,291.363,97.67,264.44,99.749z"/>
					</g>
					<path opacity="0.2" fill="#FFFFFF" enable-background="new    " d="M259.112,43.395c0-0.001-0.002-0.001-0.005-0.003
						c0.675,4.246,0.119,9.398-3.458,14.994c-9.39,14.694-13.42,9.065-57.513-1.679c-42.912-10.452-42.707,22.571-42.707,22.571
						s-0.045-0.022-0.115-0.052l0.626,1.445c0,0,0.061-17.356,15.797-21.575c15.74-4.22,63.624,13.565,75.235,10.273
						C258.592,66.075,260.498,48.25,259.112,43.395z"/>
					<path opacity="0.3" fill="#FFFFFF" enable-background="new    " d="M155.264,79.202c-2.173-0.992-27.786-11.937-38.041,19.49
						c-5.375,16.469-3.512,34.348-0.319,48.087c2.042-11.198,2.335-42.366,10.306-53.211c8.698-11.828,28.733-12.896,28.733-12.896
						C155.852,80.267,155.611,79.766,155.264,79.202z"/>
					<path fill="#8D633A" d="M151.405,108.559"/>
					<path fill="#FFFFFF" d="M195.049,175.109"/>
					<g>
						<circle fill="#010101" cx="220.894" cy="163.996" r="6.193"/>
					</g>
					<g>
						<circle fill="#010101" cx="172.953" cy="164.026" r="6.192"/>
					</g>
					<path fill="#C56234" d="M164.62,211.271c0,0,11.279,26.008,31.462,24.373c16.046-1.298,24.368-13.884,24.368-13.884
						s-21.598,4.705-35.215,0.102C176.942,219.061,164.62,211.271,164.62,211.271z"/>
					<path opacity="0.1" fill="#8D633A" enable-background="new    " d="M160.336,213.731c0,0,1.881-6.812,9.61-5.861
						C169.946,207.87,158.032,201.449,160.336,213.731z"/>
					<path fill="#8D633A" d="M197.183,171.834"/>
					<path fill="#010101" d="M189.441,142.509"/>
					<path fill="#8D633A" d="M185.464,194.24"/>
					<path opacity="0.2" fill="#8D633A" enable-background="new    " d="M185.464,194.24c0,0,6.995,9.524,10.598,9.5
						c3.6-0.023,12.144-7.592,12.144-7.592l-10.86,2.225L185.464,194.24z"/>
				</g>
				<path fill="#1072BA" d="M305.332,494.434"/>
				<path fill="#DEF1F3" d="M233.081,242.926c0,0,15.77,7.491,22.838,26.536c7.069,19.04,14.36,50.837,14.36,50.837
					s-18.059-23.293-23.609-21.921c-5.555,1.367-11.953,15.116-16.714,15.522c-4.755,0.404-11.647,5.395-17.353,9.006
					c-5.705,3.609-16.029,10.913-16.029,10.913s6.483-20.298,14.971-27.361c8.488-7.062,21.783-14.64,21.882-16.085
					C233.526,288.925,233.081,242.926,233.081,242.926z"/>
				<circle opacity="0.1" fill="#8D633A" enable-background="new    " cx="206.777" cy="374.677" r="5.448"/>
				<circle opacity="0.1" fill="#8D633A" enable-background="new    " cx="204.393" cy="437.953" r="5.565"/>
				<path opacity="0.1" fill="#8D633A" enable-background="new    " d="M210.229,499.915c-0.225,3.302-3.081,5.792-6.386,5.569
					c-3.301-0.228-5.794-3.083-5.567-6.385c0.226-3.306,3.081-5.795,6.386-5.567C207.964,493.756,210.456,496.613,210.229,499.915z"
					/>
				<circle opacity="0.1" fill="#8D633A" enable-background="new    " cx="195.201" cy="561.388" r="4.811"/>
				<path fill="#F3F3F3" d="M213.469,372.537c-0.205,2.999-2.804,5.267-5.806,5.06c-2.999-0.204-5.267-2.803-5.062-5.803
					c0.205-3.002,2.805-5.269,5.805-5.062C211.406,366.936,213.674,369.538,213.469,372.537z"/>
				<circle fill="#F3F3F3" cx="205.648" cy="435.444" r="5.565"/>
				<path fill="#F3F3F3" d="M211.486,497.402c-0.226,3.303-3.082,5.795-6.385,5.567c-3.304-0.225-5.796-3.08-5.568-6.384
					c0.225-3.304,3.082-5.793,6.385-5.569C209.221,491.245,211.711,494.101,211.486,497.402z"/>
				<circle fill="#F3F3F3" cx="196.458" cy="558.875" r="4.812"/>
				<circle fill="#FFFFFF" cx="206.777" cy="370.91" r="5.446"/>
				<circle fill="#FFFFFF" cx="204.393" cy="434.188" r="5.565"/>
				<circle fill="#FFFFFF" cx="204.254" cy="495.74" r="5.991"/>
				<circle fill="#FFFFFF" cx="195.201" cy="557.619" r="4.811"/>
				<path opacity="0.1" fill="#8D633A" enable-background="new    " d="M324.623,361.121c0,0-0.066,55.484-4.021,58.848
					c-3.95,3.363-11.438,7.426-15.538,24.975c-4.104,17.552-8.455,86.724-3.319,102.01c5.133,15.29,7.654,62.436-8.041,68.297
					c-15.698,5.853-108.347,75.784-87.145,37.072c21.204-38.713,72.281-47.245,77.949-71.598
					c5.669-24.354,1.01-78.533,2.302-102.823c1.294-24.289,4.588-29.895,17.335-56.674
					C316.89,394.44,326.235,364.141,324.623,361.121z"/>
				<path fill="#F9A667" d="M76.282,501.757c0,0,4.253,56.222,2.264,68.851c-1.996,12.639,3.471,22.833,13.807,23.539
					c10.334,0.701,20.685,3.595,35.958,14.461c15.268,10.872,24.152,19.89,7.906,20.458c-16.247,0.565-21.683-14.506-24.41-7.221
					c-2.729,7.282,9.958,18.71-10.906,31.111c-20.864,12.4-31.6,4.389-36.863-9.067c-5.265-13.463-4.319-37.913-18.067-65.714
					c-13.753-27.8-38.189-58.951-9.942-67.569C64.275,501.985,76.282,501.757,76.282,501.757z"/>
				<g>
					<g>
						<path fill="#1072BA" d="M196.871,291.451c1.665,0,2.196-2.16,0.244-2.16C195.448,289.291,194.918,291.451,196.871,291.451
							L196.871,291.451z"/>
					</g>
				</g>
				<path opacity="0.1" fill="#8D633A" enable-background="new    " d="M188.428,345.28c0,0-5.163,92.794-3.314,113.665
					c1.846,20.873-7.798,114.102-11.108,130.616c-3.316,16.514-7.266,69.002-7.266,69.002s6,6.051,7.63-22.131
					c1.632-28.183,8.483-80.476,9.078-89.171c0.592-8.693,8.078-70.307,5.824-85.25c-2.254-14.946,4.198-104.026,6.338-114.068"/>
				<path fill="#DEF1F3" d="M156.325,242.926c0,0-18.646,16.436-21.389,25.47c-2.746,9.031-11.697,64.697-4.456,65.193
					c7.238,0.494,9.975-18.242,23.442-12.957c13.466,5.288,30.516,22.104,33.171,20.464c2.661-1.64-11.655-21.174-15.364-25.433
					c-3.71-4.255-11.056-17.396-11.254-23.597C160.276,285.873,160.67,243.225,156.325,242.926z"/>
				<path opacity="0.3" fill="#FFFFFF" enable-background="new    " d="M134.935,268.397c-2.745,9.031-11.697,64.695-4.456,65.194
					c2.154,0.146,3.909-1.416,5.668-3.533c-0.425-10.766-1.311-32.138-1.924-39.687c-0.78-9.594,9.198-33.03,10.494-36.025
					C140.343,259.12,136.13,264.46,134.935,268.397z"/>
				<path fill="#F9A667" d="M379.108,537.918c0,0-22.506,47.368-44.099,65.175c-21.591,17.812-41.74,25.212-41.502,37.558
					c0.241,12.349,1.225,29.99-10.364,29.168c-11.588-0.829-49.633-7.763-34.942-26.519c14.693-18.744-7.438-2.439-15.623,0.416
					c-8.181,2.856-6.402-9.207-2.885-11.791c28.701-20.604,33.335-19.196,44.423-21.715c11.092-2.516,19.604-16.714,27.539-26.361
					c7.936-9.647,18.929-62.523,19.587-68.646c0.653-6.121,17.264-11.186,35.264-3.057
					C374.51,520.278,379.108,537.918,379.108,537.918z"/>
				<path opacity="0.1" fill="#8D633A" enable-background="new    " d="M195.609,347.943c2.145-10.037-21.855-26.238-41.628-29.773
					c-19.777-3.534-24.685,18.601-14.55,13.573c0,0,8.581-11.437,26.36-0.027c19.399,12.451,19.071,11.984,22.637,13.564"/>
				<path opacity="0.3" fill="#FFFFFF" enable-background="new    " d="M240.503,248.757c2.747,9.388,9.394,34.406,6.728,48.22
					c-0.089,0.454-0.135,0.906-0.171,1.361c5.951-0.306,23.22,21.961,23.22,21.961s-7.291-31.796-14.36-50.836
					C252.712,260.815,246.419,253.824,240.503,248.757z"/>
				<path fill="#FFFFFF" d="M223.682,239.368"/>
				<path opacity="0.3" fill="#FFFFFF" enable-background="new    " d="M233.427,290.372c-0.098,1.446-13.394,9.024-21.882,16.086
					c-7.855,6.54-13.99,24.405-14.86,27.025l0.093,0.192c1.402-0.988,10.57-7.441,15.828-10.766
					c5.705-3.615,12.598-8.605,17.354-9.01c0.51-0.044,1.041-0.25,1.588-0.568l1.534-1.155L233.427,290.372z"/>
				<g>
					<path opacity="0.1" fill="#8D633A" enable-background="new    " d="M356.506,512.147c-18-8.129-34.607-3.063-35.264,3.058
						c-0.088,0.801-0.353,2.419-0.766,4.631c6.816-1.407,16.537-2.306,28.329-0.354c16.797,2.784,22.16,16.27,26.599,25.817
						c2.349-4.537,3.701-7.379,3.701-7.379S374.51,520.278,356.506,512.147z"/>
					<path opacity="0.1" fill="#8D633A" enable-background="new    " d="M392.742,509.157c0.158-0.729,0.307-1.714,0.457-2.903
						c-10.547-7.099-27.885-17.003-48.631-22.095c-9.903-2.431-17.396-2.273-23.061-0.823c-1.347,6.745-2.27,12.399-2.27,12.399
						l6.878-2.049C326.116,493.687,391.133,516.688,392.742,509.157z"/>
				</g>
				<path fill="#DEF1F3" d="M310.684,493.322l3.115,19.411c0,0,4.757,11.361,6.242,9.382c3.125-4.158,5.334-11.78,18.973-9.37
					c20.13,3.562,38.973,15.406,38.379,24.097c-0.592,8.692-3.933,12.169-3.933,12.169s8.138,0.849,9.476-2.693
					c1.33-3.55,12.582-29.714,12.779-32.61c0.2-2.895-21.331-17.975-40.068-20.706C336.908,490.265,329.12,484.392,310.684,493.322z
					"/>
				<path opacity="0.1" fill="#8D633A" enable-background="new    " d="M241.729,643.863c0,0-12.081,14.717,5.188,21.312
					c17.271,6.594,41.449,15.305,48.982,4.671c7.538-10.64-0.704-21.583-2.393-17.524c-1.689,4.064-5.771,14.187-16.133,11.163
					C267.015,660.466,254.438,662.742,241.729,643.863z"/>
				<g>
					<path opacity="0.1" fill="#8D633A" enable-background="new    " d="M48.341,510.197c-18.322,2.677-28.881,15.062-26.306,20.228
						c0.339,0.679,0.944,2.089,1.736,4.046c4.673-4.556,11.894-10.176,22.196-14.592c14.67-6.283,25.717,1.656,34.047,6.958
						c-0.438-4.771-0.808-7.704-0.808-7.704S66.663,507.525,48.341,510.197z"/>
					<path opacity="0.1" fill="#8D633A" enable-background="new    " d="M86.222,503.628c-0.002-0.696-0.648-12.653-0.747-13.771
						c-11.066-4.425-25.811,0.949-45.829,0.382c-9.555-0.271-16.39,1.354-21.296,3.804c0.102,6.449,0.373,11.812,0.373,11.812
						l5.896-3.238C24.621,502.617,86.235,510.851,86.222,503.628z"/>
				</g>
				<path fill="#DEF1F3" d="M2.644,518.48l12.261,13.752c0,0,9.496,6.571,9.669,4.258c0.367-4.862-1.739-11.997,10.25-16.979
					c17.698-7.357,38.56-7.521,42.482-0.357c3.921,7.164,3.04,11.596,3.04,11.596s6.855-3.437,6.12-6.913
					c-0.74-3.475,4.131-25.71,2.827-28.097c-1.308-2.388-35.125-7.528-51.302-0.219C21.809,502.818,12.692,502.112,2.644,518.48z"/>
				<path opacity="0.1" fill="#8D633A" enable-background="new    " d="M102.88,623.623c0,0,14.569-2.512,14.569,7.537
					c0,10.047,0.266,17.624-10.883,21.162c-11.153,3.542-26.795,18.004-36.005,6.798c-9.209-11.212-0.418-12.468,7.537-8.7
					c7.954,3.766,24.865-5.86,24.783-8.793C102.798,638.694,108.823,624.044,102.88,623.623z"/>
			</g>
		</g>
	</g>
</g>
</svg>
